<svg width="1600" height="900" viewBox="0 0 1600 900" fill="none" xmlns="http://www.w3.org/2000/svg">
  <rect width="1600" height="900" rx="36" fill="url(#bg)"/>
  <rect width="1600" height="900" rx="36" fill="url(#overlay)"/>
  <g opacity="0.95">
    <circle cx="280" cy="220" r="280" fill="url(#orb1)" filter="url(#blur1)"/>
    <circle cx="1320" cy="650" r="320" fill="url(#orb2)" filter="url(#blur2)"/>
    <circle cx="1260" cy="240" r="180" fill="url(#orb3)" filter="url(#blur3)"/>
  </g>

  <g opacity="0.6" stroke="url(#lineStroke)" stroke-width="1.5">
    <path d="M180 660C340 540 470 520 600 590C720 656 840 690 980 650C1120 612 1240 540 1420 390"/>
    <path d="M170 250C330 180 470 180 620 240C780 304 920 306 1090 238C1250 176 1370 164 1440 172"/>
    <path d="M250 740C410 670 560 688 710 750C850 806 1010 806 1160 742C1290 688 1380 670 1480 676"/>
  </g>

  <g opacity="0.4" stroke="rgba(255,255,255,0.35)" stroke-width="1">
    <rect x="250" y="190" width="1080" height="520" rx="38" stroke-opacity="0.16"/>
    <rect x="310" y="240" width="960" height="430" rx="26" stroke-opacity="0.12"/>
  </g>

  <g opacity="0.45">
    <circle cx="360" cy="340" r="8" fill="#FFFFFF"/>
    <circle cx="440" cy="300" r="5" fill="#D8E4FF"/>
    <circle cx="1160" cy="620" r="6" fill="#FFFFFF"/>
    <circle cx="1240" cy="300" r="4" fill="#D8E4FF"/>
    <circle cx="1080" cy="260" r="4" fill="#FFFFFF"/>
  </g>

  <g opacity="0.35" fill="none" stroke="#FFFFFF" stroke-width="2">
    <path d="M610 220H780"/>
    <path d="M660 280H740"/>
    <path d="M580 360H850"/>
    <path d="M620 420H820"/>
  </g>

  <rect x="430" y="180" width="740" height="540" rx="34" fill="#0F172A" fill-opacity="0.08"/>
  <rect x="450" y="200" width="700" height="500" rx="30" fill="#0F172A" fill-opacity="0.06"/>

  <defs>
    <linearGradient id="bg" x1="200" y1="80" x2="1380" y2="860" gradientUnits="userSpaceOnUse">
      <stop stop-color="#F5F9FF"/>
      <stop offset="0.55" stop-color="#E6EEFF"/>
      <stop offset="1" stop-color="#DCE7FF"/>
    </linearGradient>
    <linearGradient id="overlay" x1="400" y1="120" x2="1200" y2="780" gradientUnits="userSpaceOnUse">
      <stop stop-color="#FFFFFF" stop-opacity="0.18"/>
      <stop offset="1" stop-color="#8DA6FF" stop-opacity="0.08"/>
    </linearGradient>
    <linearGradient id="orb1" x1="120" y1="-20" x2="520" y2="480" gradientUnits="userSpaceOnUse">
      <stop stop-color="#8AB4FF"/>
      <stop offset="1" stop-color="#C7B1FF"/>
    </linearGradient>
    <linearGradient id="orb2" x1="1060" y1="360" x2="1540" y2="910" gradientUnits="userSpaceOnUse">
      <stop stop-color="#62A2FF"/>
      <stop offset="1" stop-color="#886CFF"/>
    </linearGradient>
    <linearGradient id="orb3" x1="1100" y1="90" x2="1420" y2="410" gradientUnits="userSpaceOnUse">
      <stop stop-color="#D7E4FF"/>
      <stop offset="1" stop-color="#A8C4FF"/>
    </linearGradient>
    <linearGradient id="lineStroke" x1="180" y1="660" x2="1420" y2="390" gradientUnits="userSpaceOnUse">
      <stop stop-color="#FFFFFF" stop-opacity="0.75"/>
      <stop offset="1" stop-color="#90A8FF" stop-opacity="0.3"/>
    </linearGradient>
    <filter id="blur1" x="-120" y="-120" width="800" height="800" filterUnits="userSpaceOnUse" color-interpolation-filters="sRGB">
      <feGaussianBlur stdDeviation="60"/>
    </filter>
    <filter id="blur2" x="920" y="250" width="800" height="800" filterUnits="userSpaceOnUse" color-interpolation-filters="sRGB">
      <feGaussianBlur stdDeviation="70"/>
    </filter>
    <filter id="blur3" x="1000" y="40" width="520" height="520" filterUnits="userSpaceOnUse" color-interpolation-filters="sRGB">
      <feGaussianBlur stdDeviation="50"/>
    </filter>
  </defs>
</svg>
